REM DIRINDEX 1\2,1\3,1\4,1\5
REM DIRNAME folder01,folder02,folder03,folder04,folder05
TITLE ""
FILE "1800_156.mp3" MP3
  TRACK 01 AUDIO
    TITLE "2:cjc044_4971"
    INDEX 01 00:00:00
  TRACK 02 AUDIO
    TITLE "0:"
    INDEX 01 00:01:03
  TRACK 03 AUDIO
    TITLE "3:cjc044_4972"
    INDEX 01 00:01:69
  TRACK 04 AUDIO
    TITLE "0:"
    INDEX 01 00:02:63
  TRACK 05 AUDIO
    TITLE "4:cjc044_4973"
    INDEX 01 00:03:61
  TRACK 06 AUDIO
    TITLE "0:"
    INDEX 01 00:05:03
  TRACK 07 AUDIO
    TITLE "2:cjc044_4974"
    INDEX 01 00:06:61
  TRACK 08 AUDIO
    TITLE "0:"
    INDEX 01 00:07:64
  TRACK 09 AUDIO
    TITLE "3:cjc044_4975"
    INDEX 01 00:08:48
  TRACK 10 AUDIO
    TITLE "0:"
    INDEX 01 00:10:33
  TRACK 11 AUDIO
    TITLE "4:cjc044_4976"
    INDEX 01 00:11:23
  TRACK 12 AUDIO
    TITLE "0:"
    INDEX 01 00:12:24
  TRACK 13 AUDIO
    TITLE "2:cjc044_4977"
    INDEX 01 00:14:11
  TRACK 14 AUDIO
    TITLE "0:"
    INDEX 01 00:15:42
  TRACK 15 AUDIO
    TITLE "3:cjc044_4978"
    INDEX 01 00:16:26
  TRACK 16 AUDIO
    TITLE "0:"
    INDEX 01 00:17:27
  TRACK 17 AUDIO
    TITLE "4:cjc044_4979"
    INDEX 01 00:18:19
  TRACK 18 AUDIO
    TITLE "0:"
    INDEX 01 00:19:48
  TRACK 19 AUDIO
    TITLE "2:cjc044_4980"
    INDEX 01 00:21:39
  TRACK 20 AUDIO
    TITLE "0:"
    INDEX 01 00:22:72
  TRACK 21 AUDIO
    TITLE "3:cjc044_4981"
    INDEX 01 00:23:57
  TRACK 22 AUDIO
    TITLE "0:"
    INDEX 01 00:25:01
  TRACK 23 AUDIO
    TITLE "4:cjc044_4982"
    INDEX 01 00:25:68
  TRACK 24 AUDIO
    TITLE "0:"
    INDEX 01 00:27:28
  TRACK 25 AUDIO
    TITLE "2:cjc044_4983"
    INDEX 01 00:29:11
  TRACK 26 AUDIO
    TITLE "0:"
    INDEX 01 00:30:24
  TRACK 27 AUDIO
    TITLE "3:cjc044_4984"
    INDEX 01 00:31:00
  TRACK 28 AUDIO
    TITLE "0:"
    INDEX 01 00:32:54
  TRACK 29 AUDIO
    TITLE "4:cjc044_4985"
    INDEX 01 00:33:38
  TRACK 30 AUDIO
    TITLE "0:"
    INDEX 01 00:34:51
  TRACK 31 AUDIO
    TITLE "2:cjc044_4986"
    INDEX 01 00:36:31
  TRACK 32 AUDIO
    TITLE "0:"
    INDEX 01 00:37:61
  TRACK 33 AUDIO
    TITLE "3:cjc044_4987"
    INDEX 01 00:38:37
  TRACK 34 AUDIO
    TITLE "0:"
    INDEX 01 00:39:51
  TRACK 35 AUDIO
    TITLE "4:cjc044_4988"
    INDEX 01 00:40:26
  TRACK 36 AUDIO
    TITLE "0:"
    INDEX 01 00:41:57
  TRACK 37 AUDIO
    TITLE "2:cjc044_4989"
    INDEX 01 00:43:35
  TRACK 38 AUDIO
    TITLE "0:"
    INDEX 01 00:44:48
  TRACK 39 AUDIO
    TITLE "3:cjc044_4990"
    INDEX 01 00:45:28
  TRACK 40 AUDIO
    TITLE "0:"
    INDEX 01 00:47:64
  TRACK 41 AUDIO
    TITLE "4:cjc044_4991"
    INDEX 01 00:48:40
  TRACK 42 AUDIO
    TITLE "0:"
    INDEX 01 00:49:51
  TRACK 43 AUDIO
    TITLE "2:cjc044_4992"
    INDEX 01 00:51:34
  TRACK 44 AUDIO
    TITLE "0:"
    INDEX 01 00:52:67
  TRACK 45 AUDIO
    TITLE "3:cjc044_4993"
    INDEX 01 00:53:53
  TRACK 46 AUDIO
    TITLE "0:"
    INDEX 01 00:55:10
  TRACK 47 AUDIO
    TITLE "4:cjc044_4994"
    INDEX 01 00:56:04
  TRACK 48 AUDIO
    TITLE "0:"
    INDEX 01 00:57:39
  TRACK 49 AUDIO
    TITLE "2:cjc044_4995"
    INDEX 01 00:59:20
  TRACK 50 AUDIO
    TITLE "0:"
    INDEX 01 01:00:66
  TRACK 51 AUDIO
    TITLE "3:cjc044_4996"
    INDEX 01 01:01:46
  TRACK 52 AUDIO
    TITLE "0:"
    INDEX 01 01:02:63
  TRACK 53 AUDIO
    TITLE "4:cjc044_4997"
    INDEX 01 01:03:45
  TRACK 54 AUDIO
    TITLE "0:"
    INDEX 01 01:05:21
  TRACK 55 AUDIO
    TITLE "2:cjc044_4998"
    INDEX 01 01:07:00
  TRACK 56 AUDIO
    TITLE "0:"
    INDEX 01 01:08:21
  TRACK 57 AUDIO
    TITLE "3:cjc044_4999"
    INDEX 01 01:09:09
  TRACK 58 AUDIO
    TITLE "0:"
    INDEX 01 01:10:18
  TRACK 59 AUDIO
    TITLE "4:cjc044_5000"
    INDEX 01 01:11:19
  TRACK 60 AUDIO
    TITLE "0:"
    INDEX 01 01:12:42
  TRACK 61 AUDIO
    TITLE "2:cjc044_5001"
    INDEX 01 01:14:31
  TRACK 62 AUDIO
    TITLE "0:"
    INDEX 01 01:15:48
  TRACK 63 AUDIO
    TITLE "3:cjc044_5002"
    INDEX 01 01:16:30
  TRACK 64 AUDIO
    TITLE "0:"
    INDEX 01 01:17:45
  TRACK 65 AUDIO
    TITLE "4:cjc044_5003"
    INDEX 01 01:18:27
  TRACK 66 AUDIO
    TITLE "0:"
    INDEX 01 01:19:42
  TRACK 67 AUDIO
    TITLE "2:cjc044_5004"
    INDEX 01 01:21:23
  TRACK 68 AUDIO
    TITLE "0:"
    INDEX 01 01:22:60
  TRACK 69 AUDIO
    TITLE "3:cjc044_5005"
    INDEX 01 01:23:34
  TRACK 70 AUDIO
    TITLE "0:"
    INDEX 01 01:24:41
  TRACK 71 AUDIO
    TITLE "4:cjc044_5006"
    INDEX 01 01:25:19
  TRACK 72 AUDIO
    TITLE "0:"
    INDEX 01 01:26:58
  TRACK 73 AUDIO
    TITLE "2:cjc044_5007"
    INDEX 01 01:28:35
  TRACK 74 AUDIO
    TITLE "0:"
    INDEX 01 01:29:48
  TRACK 75 AUDIO
    TITLE "3:cjc044_5008"
    INDEX 01 01:30:28
  TRACK 76 AUDIO
    TITLE "0:"
    INDEX 01 01:31:36
  TRACK 77 AUDIO
    TITLE "4:cjc044_5009"
    INDEX 01 01:32:15
  TRACK 78 AUDIO
    TITLE "0:"
    INDEX 01 01:33:27
  TRACK 79 AUDIO
    TITLE "2:cjc044_5010"
    INDEX 01 01:35:12
  TRACK 80 AUDIO
    TITLE "0:"
    INDEX 01 01:36:43
  TRACK 81 AUDIO
    TITLE "3:cjc044_5011"
    INDEX 01 01:37:28
  TRACK 82 AUDIO
    TITLE "0:"
    INDEX 01 01:38:47
  TRACK 83 AUDIO
    TITLE "4:cjc044_5012"
    INDEX 01 01:39:43
  TRACK 84 AUDIO
    TITLE "0:"
    INDEX 01 01:41:01
  TRACK 85 AUDIO
    TITLE "2:cjc044_5013"
    INDEX 01 01:42:57
  TRACK 86 AUDIO
    TITLE "0:"
    INDEX 01 01:43:70
  TRACK 87 AUDIO
    TITLE "3:cjc044_5014"
    INDEX 01 01:44:50
  TRACK 88 AUDIO
    TITLE "0:"
    INDEX 01 01:45:44
  TRACK 89 AUDIO
    TITLE "4:cjc044_5015"
    INDEX 01 01:46:23
  TRACK 90 AUDIO
    TITLE "0:"
    INDEX 01 01:47:37
  TRACK 91 AUDIO
    TITLE "2:cjc044_5016"
    INDEX 01 01:49:20
  TRACK 92 AUDIO
    TITLE "0:"
    INDEX 01 01:50:45
  TRACK 93 AUDIO
    TITLE "3:cjc044_5017"
    INDEX 01 01:51:34
  TRACK 94 AUDIO
    TITLE "0:"
    INDEX 01 01:52:48
  TRACK 95 AUDIO
    TITLE "4:cjc044_5018"
    INDEX 01 01:53:45
  TRACK 96 AUDIO
    TITLE "0:"
    INDEX 01 01:55:03
  TRACK 97 AUDIO
    TITLE "2:cjc044_5019"
    INDEX 01 01:56:63
  TRACK 98 AUDIO
    TITLE "0:"
    INDEX 01 01:58:09
  TRACK 99 AUDIO
    TITLE "3:cjc044_5020"
    INDEX 01 01:58:72
  TRACK 100 AUDIO
    TITLE "0:"
    INDEX 01 02:00:10
  TRACK 101 AUDIO
    TITLE "4:cjc044_5021"
    INDEX 01 02:00:72
  TRACK 102 AUDIO
    TITLE "0:"
    INDEX 01 02:02:18
  TRACK 103 AUDIO
    TITLE "2:cjc044_5022"
    INDEX 01 02:04:06
  TRACK 104 AUDIO
    TITLE "0:"
    INDEX 01 02:05:27
  TRACK 105 AUDIO
    TITLE "3:cjc044_5023"
    INDEX 01 02:06:06
  TRACK 106 AUDIO
    TITLE "0:"
    INDEX 01 02:07:12
  TRACK 107 AUDIO
    TITLE "4:cjc044_5024"
    INDEX 01 02:08:05
  TRACK 108 AUDIO
    TITLE "0:"
    INDEX 01 02:09:30
  TRACK 109 AUDIO
    TITLE "2:cjc044_5025"
    INDEX 01 02:11:14
  TRACK 110 AUDIO
    TITLE "0:"
    INDEX 01 02:12:42
  TRACK 111 AUDIO
    TITLE "3:cjc044_5026"
    INDEX 01 02:13:30
  TRACK 112 AUDIO
    TITLE "0:"
    INDEX 01 02:14:57
  TRACK 113 AUDIO
    TITLE "4:cjc044_5027"
    INDEX 01 02:15:45
  TRACK 114 AUDIO
    TITLE "0:"
    INDEX 01 02:17:00
